<svg width="288" height="288" viewBox="0 0 288 288" fill="none" xmlns="http://www.w3.org/2000/svg">
<path fill-rule="evenodd" clip-rule="evenodd" d="M264 111.15C264 95.9 257.942 81.2746 247.158 70.4913C236.375 59.7079 221.75 53.6499 206.5 53.6499H196.75C178.378 32.02 148.764 23.6229 121.773 32.3899C94.7821 41.1568 75.755 65.3526 73.5998 93.6499H61.5498C40.8391 93.6499 24.0498 110.439 24.0498 131.15C24.0498 151.861 40.8391 168.65 61.5498 168.65H206.55C238.287 168.622 264 142.887 264 111.15Z" stroke="white" stroke-width="10"/>
<path d="M83.3994 235.75L110.799 188.8" stroke="white" stroke-width="10" stroke-linecap="round"/>
<path d="M156.1 235.75L183.5 188.8" stroke="white" stroke-width="10" stroke-linecap="round"/>
<path d="M105.95 259.45L147.15 188.8" stroke="white" stroke-width="10" stroke-linecap="round"/>
</svg>
