<svg width="288" height="288" viewBox="0 0 288 288" fill="none" xmlns="http://www.w3.org/2000/svg">
<path d="M128 45L128 6" stroke="#FFCB14" stroke-width="9.66102" stroke-linecap="round"/>
<path d="M69.5785 69.5306L38.8564 38.8086" stroke="#FFCB14" stroke-width="9.66102" stroke-linecap="round"/>
<path d="M46 128L6 128" stroke="#FFCB14" stroke-width="9.66102" stroke-linecap="round"/>
<path d="M69.6268 185.56L38.8564 216.33" stroke="#FFCB14" stroke-width="9.66102" stroke-linecap="round"/>
<path d="M185.607 69.4818L216.378 38.7598" stroke="#FFCB14" stroke-width="9.66102" stroke-linecap="round"/>
<path d="M191.452 105.373C181.414 76.2877 153.007 57.6449 122.329 60.0091C91.6512 62.3733 66.4362 85.1486 60.973 115.429C55.5098 145.709 71.1757 175.86 99.0931 188.796" stroke="#FFCB14" stroke-width="9.66102"/>
<path d="M137.689 266.663L159.04 230.048" stroke="white" stroke-width="9.66102" stroke-linecap="round"/>
<path d="M208.456 266.663L229.855 230.048" stroke="white" stroke-width="9.66102" stroke-linecap="round"/>
<path d="M164.419 282.821L193.581 229.179" stroke="white" stroke-width="9.66102" stroke-linecap="round"/>
<path fill-rule="evenodd" clip-rule="evenodd" d="M282.17 168.314C282.183 156.647 277.557 145.454 269.312 137.2C261.067 128.946 249.879 124.308 238.212 124.308H230.773C216.754 107.657 194.042 101.166 173.341 107.893C152.64 114.62 138.083 133.223 136.53 154.933H127.304C111.457 154.933 98.6104 167.78 98.6104 183.627C98.6104 199.473 111.457 212.32 127.304 212.32H238.405C262.626 212.213 282.197 192.535 282.17 168.314Z" stroke="white" stroke-width="9.66102"/>
</svg>
