<svg width="288" height="288" viewBox="0 0 288 288" fill="none" xmlns="http://www.w3.org/2000/svg">
<path d="M100.728 6V39.7273" stroke="#FFCB14" stroke-width="9.63636" stroke-linecap="round"/>
<path d="M47.7273 92.3896H14" stroke="#FFCB14" stroke-width="9.63636" stroke-linecap="round"/>
<path d="M63.1938 54.8568L39.3438 31.0068" stroke="#FFCB14" stroke-width="9.63636" stroke-linecap="round"/>
<path d="M128.528 65.5531C118.672 55.3976 104.042 51.4604 90.4198 55.2969C76.7973 59.1333 66.3728 70.1265 63.2645 83.9333C60.1562 97.7402 64.8641 112.14 75.5283 121.444" stroke="#FFCB14" stroke-width="9.63636"/>
<path d="M150.981 282.901L187.792 219.879H145.97L182.781 156.761" stroke="#FFCB14" stroke-width="9.63636" stroke-linecap="round"/>
<path d="M182.299 193.571H218.869C249.47 193.571 274.278 168.764 274.278 138.162C274.278 107.561 249.47 82.7532 218.869 82.7532H209.377C191.673 61.9098 163.137 53.8181 137.127 62.2662C111.117 70.7143 92.7821 94.0304 90.7052 121.299H79.0934C59.1358 121.299 42.957 137.477 42.957 157.435C42.957 177.393 59.1358 193.571 79.0934 193.571H139.802" stroke="white" stroke-width="9.63636" stroke-linecap="round"/>
</svg>
