<svg width="288" height="288" viewBox="0 0 288 288" fill="none" xmlns="http://www.w3.org/2000/svg">
<path d="M126 46L126 9" stroke="#FFCB14" stroke-width="9.72881" stroke-linecap="round"/>
<path d="M68.0529 70.004L37.1152 39.0664" stroke="#FFCB14" stroke-width="9.72881" stroke-linecap="round"/>
<path d="M44 128L10 128" stroke="#FFCB14" stroke-width="9.72881" stroke-linecap="round"/>
<path d="M68.1015 186.848L37.1152 217.834" stroke="#FFCB14" stroke-width="9.72881" stroke-linecap="round"/>
<path d="M184.896 69.9562L215.883 39.0186" stroke="#FFCB14" stroke-width="9.72881" stroke-linecap="round"/>
<path d="M190.783 106.098C180.674 76.8087 152.068 58.035 121.175 60.4158C90.2813 62.7966 64.8894 85.7317 59.3878 116.224C53.8863 146.717 69.6621 177.08 97.7755 190.107" stroke="#FFCB14" stroke-width="9.72881"/>
<path d="M183.987 282L213 233.024H180L209.061 184" stroke="#FFCB14" stroke-width="9.72881" stroke-linecap="round"/>
<path d="M208.732 213.699H237.918C262.365 213.699 282.184 193.88 282.184 169.433C282.184 144.985 262.365 125.167 237.918 125.167H230.378C216.403 108.156 193.435 101.441 172.497 108.245C151.56 115.049 136.926 133.982 135.619 155.958H126.474C115.877 155.523 105.894 160.929 100.466 170.04C95.0375 179.152 95.0375 190.505 100.466 199.617C105.894 208.728 115.877 214.134 126.474 213.699H175.118" stroke="white" stroke-width="9.72881" stroke-linecap="round"/>
</svg>
