<svg width="288" height="288" viewBox="0 0 288 288" fill="none" xmlns="http://www.w3.org/2000/svg">
<path fill-rule="evenodd" clip-rule="evenodd" d="M204.873 168.698C235.982 168.698 261.2 143.479 261.2 112.371C261.2 81.2628 235.982 56.0445 204.873 56.0445H195.224C177.227 34.8561 148.218 26.6304 121.778 35.2184C95.3376 43.8064 76.6989 67.5084 74.5876 95.2282H62.7835C42.4955 95.2282 26.0488 111.675 26.0488 131.963C26.0488 152.251 42.4955 168.698 62.7835 168.698H204.873Z" stroke="white" stroke-width="9.79592"/>
<path d="M50.4414 234.428L77.2822 188.437" stroke="white" stroke-width="9.79592" stroke-linecap="round"/>
<path d="M121.656 234.428L148.497 188.437" stroke="white" stroke-width="9.79592" stroke-linecap="round"/>
<path d="M72.5312 257.645L112.89 188.437" stroke="white" stroke-width="9.79592" stroke-linecap="round"/>
<path d="M194.293 234.428L221.134 188.437" stroke="white" stroke-width="9.79592" stroke-linecap="round"/>
<path d="M145.119 257.645L185.527 188.437" stroke="white" stroke-width="9.79592" stroke-linecap="round"/>
</svg>
