<svg width="288" height="288" viewBox="0 0 288 288" fill="none" xmlns="http://www.w3.org/2000/svg">
<path d="M143 6L143 49" stroke="#FFCB14" stroke-width="9.49895" stroke-linecap="round"/>
<path d="M143 239L143 282" stroke="#FFCB14" stroke-width="9.49895" stroke-linecap="round"/>
<path d="M5 144L48 144" stroke="#FFCB14" stroke-width="9.49895" stroke-linecap="round"/>
<path d="M210.642 77.3268L244.22 43.748" stroke="#FFCB14" stroke-width="9.49895" stroke-linecap="round"/>
<path d="M244.22 245.22L210.642 211.642" stroke="#FFCB14" stroke-width="9.49895" stroke-linecap="round"/>
<path d="M76.3268 77.3268L42.748 43.748" stroke="#FFCB14" stroke-width="9.49895" stroke-linecap="round"/>
<path d="M76.3268 211.642L42.748 245.22" stroke="#FFCB14" stroke-width="9.49895" stroke-linecap="round"/>
<path d="M211.877 111.57C196.932 80.5771 163.027 63.4931 129.226 69.9237C95.4238 76.3542 70.1606 104.694 67.6403 139.01C65.1199 173.326 85.9714 205.053 118.471 216.353C150.97 227.653 187.007 215.706 206.32 187.229" stroke="#FFCB14" stroke-width="9.49895"/>
<path fill-rule="evenodd" clip-rule="evenodd" d="M250.3 125.486H246.168C236.173 113.113 219.529 108.275 204.459 113.362C189.389 118.449 179.082 132.384 178.63 148.284H172.551C162.157 148.797 153.993 157.374 153.993 167.78C153.993 178.187 162.157 186.764 172.551 187.277H250.3C261.738 187.911 272.589 182.17 278.499 172.357C284.41 162.544 284.41 150.267 278.499 140.454C272.589 130.64 261.738 124.899 250.3 125.534V125.486Z" stroke="white" stroke-width="9.49895"/>
</svg>
