<svg width="288" height="288" viewBox="0 0 288 288" fill="none" xmlns="http://www.w3.org/2000/svg">
<path d="M231.812 193.526V252.204" stroke="white" stroke-width="9.79592" stroke-linecap="round"/>
<path d="M206.393 208.22L257.184 237.51" stroke="white" stroke-width="9.79592" stroke-linecap="round"/>
<path d="M206.393 237.51L257.184 208.22" stroke="white" stroke-width="9.79592" stroke-linecap="round"/>
<path d="M60.2363 193.526V252.204" stroke="white" stroke-width="9.79592" stroke-linecap="round"/>
<path d="M34.8652 208.22L85.6571 237.51" stroke="white" stroke-width="9.79592" stroke-linecap="round"/>
<path d="M34.8652 237.51L85.6571 208.22" stroke="white" stroke-width="9.79592" stroke-linecap="round"/>
<path fill-rule="evenodd" clip-rule="evenodd" d="M204.873 163.698C235.982 163.698 261.2 138.479 261.2 107.371C261.2 76.2628 235.982 51.0445 204.873 51.0445H195.224C177.227 29.8561 148.218 21.6304 121.778 30.2184C95.3376 38.8064 76.6989 62.5084 74.5876 90.2282H62.7835C42.4955 90.2282 26.0488 106.675 26.0488 126.963C26.0488 147.251 42.4955 163.698 62.7835 163.698H204.873Z" stroke="white" stroke-width="9.79592"/>
<path d="M146.049 183.632V261.999" stroke="white" stroke-width="9.79592" stroke-linecap="round"/>
<path d="M112.105 203.225L179.942 242.408" stroke="white" stroke-width="9.79592" stroke-linecap="round"/>
<path d="M112.105 242.408L179.942 203.225" stroke="white" stroke-width="9.79592" stroke-linecap="round"/>
</svg>
