<svg width="288" height="288" viewBox="0 0 288 288" fill="none" xmlns="http://www.w3.org/2000/svg">
<path fill-rule="evenodd" clip-rule="evenodd" d="M100.003 26.8279C99.2954 25.7436 98.0882 25.0898 96.7935 25.0898V25.0898C95.4975 25.0898 94.2894 25.7448 93.5821 26.8307L71.0257 61.4632C69.3208 64.0808 69.2955 67.4513 70.9609 70.0941L93.6084 106.036C94.2978 107.13 95.5004 107.793 96.7934 107.793V107.793C98.0854 107.793 99.2871 107.131 99.9768 106.038L122.666 70.1001C124.336 67.4544 124.311 64.0777 122.601 61.4574L100.003 26.8279Z" stroke="white" stroke-width="10.129"/>
<path fill-rule="evenodd" clip-rule="evenodd" d="M100.003 181.701C99.2954 180.617 98.0882 179.963 96.7935 179.963V179.963C95.4975 179.963 94.2894 180.618 93.5821 181.704L71.0257 216.336C69.3208 218.954 69.2955 222.324 70.9609 224.967L93.6084 260.909C94.2978 262.003 95.5004 262.666 96.7934 262.666V262.666C98.0854 262.666 99.2871 262.004 99.9768 260.912L122.666 224.973C124.336 222.327 124.311 218.951 122.601 216.33L100.003 181.701Z" stroke="white" stroke-width="10.129"/>
<path fill-rule="evenodd" clip-rule="evenodd" d="M171.675 69.0695C170.331 67.0038 168.033 65.7578 165.568 65.7578V65.7578C163.105 65.7578 160.808 67.0026 159.463 69.0667L114.23 138.492C112.523 141.111 112.498 144.483 114.166 147.127L159.512 219.012C160.824 221.092 163.11 222.353 165.568 222.353V222.353C168.028 222.353 170.315 221.09 171.626 219.01L216.927 147.124C218.592 144.482 218.567 141.112 216.863 138.495L171.675 69.0695Z" stroke="white" stroke-width="10.129"/>
</svg>
