<svg width="288" height="288" viewBox="0 0 288 288" fill="none" xmlns="http://www.w3.org/2000/svg">
<path fill-rule="evenodd" clip-rule="evenodd" d="M204.873 165.698C235.982 165.698 261.2 140.479 261.2 109.371C261.2 78.2628 235.982 53.0445 204.873 53.0445H195.224C177.227 31.8561 148.218 23.6304 121.778 32.2184C95.3376 40.8064 76.6989 64.5084 74.5876 92.2282H62.7835C42.4955 92.2282 26.0488 108.675 26.0488 128.963C26.0488 149.251 42.4955 165.698 62.7835 165.698H204.873Z" stroke="white" stroke-width="9.79592"/>
<path d="M194.979 224.62C204.447 224.62 212.122 216.945 212.122 207.477C212.122 198.009 204.447 190.334 194.979 190.334C185.511 190.334 177.836 198.009 177.836 207.477C177.836 216.945 185.511 224.62 194.979 224.62Z" stroke="white" stroke-width="9.79592"/>
<path d="M87.1272 259.2C96.595 259.2 104.27 251.525 104.27 242.057C104.27 232.589 96.595 224.914 87.1272 224.914C77.6595 224.914 69.9844 232.589 69.9844 242.057C69.9844 251.525 77.6595 259.2 87.1272 259.2Z" stroke="white" stroke-width="9.79592"/>
<path d="M141.053 241.91C150.521 241.91 158.196 234.235 158.196 224.767C158.196 215.299 150.521 207.624 141.053 207.624C131.585 207.624 123.91 215.299 123.91 224.767C123.91 234.235 131.585 241.91 141.053 241.91Z" stroke="white" stroke-width="9.79592"/>
</svg>
