<svg width="288" height="288" viewBox="0 0 288 288" fill="none" xmlns="http://www.w3.org/2000/svg">
<path fill-rule="evenodd" clip-rule="evenodd" d="M179.209 193.887C179.024 193.604 178.709 193.433 178.371 193.433H176.223C175.884 193.433 175.569 193.604 175.385 193.887L155.557 224.341C155.344 224.668 155.34 225.089 155.549 225.42L175.386 256.884C175.569 257.175 175.889 257.351 176.232 257.351H178.361C178.705 257.351 179.024 257.175 179.207 256.884L199.045 225.42C199.253 225.089 199.25 224.668 199.037 224.341L179.209 193.887Z" stroke="white" stroke-width="9.79592"/>
<path fill-rule="evenodd" clip-rule="evenodd" d="M204.873 168.698C235.982 168.698 261.2 143.479 261.2 112.371C261.2 81.2628 235.982 56.0445 204.873 56.0445H195.224C177.227 34.8561 148.218 26.6304 121.778 35.2184C95.3376 43.8064 76.6989 67.5084 74.5876 95.2282H62.7835C42.4955 95.2282 26.0488 111.675 26.0488 131.963C26.0488 152.251 42.4955 168.698 62.7835 168.698H204.873Z" stroke="white" stroke-width="9.79592"/>
<path d="M106.13 188.485L88.8398 218.412" stroke="white" stroke-width="9.79592" stroke-linecap="round"/>
<path d="M80.2691 232.763C81.2429 232.763 82.0324 231.973 82.0324 231C82.0324 230.026 81.2429 229.236 80.2691 229.236C79.2953 229.236 78.5059 230.026 78.5059 231C78.5059 231.973 79.2953 232.763 80.2691 232.763Z" stroke="white" stroke-width="9.79592"/>
<path d="M142.18 188.485L112.449 239.914" stroke="white" stroke-width="9.79592" stroke-linecap="round"/>
<path d="M102.115 257.351C103.089 257.351 103.878 256.561 103.878 255.587C103.878 254.614 103.089 253.824 102.115 253.824C101.141 253.824 100.352 254.614 100.352 255.587C100.352 256.561 101.141 257.351 102.115 257.351Z" stroke="white" stroke-width="9.79592"/>
</svg>
