<svg width="288" height="288" viewBox="0 0 288 288" fill="none" xmlns="http://www.w3.org/2000/svg">
<path fill-rule="evenodd" clip-rule="evenodd" d="M204.873 167.698C235.982 167.698 261.2 142.479 261.2 111.371C261.2 80.2628 235.982 55.0445 204.873 55.0445H195.224C177.227 33.8561 148.218 25.6304 121.778 34.2184C95.3376 42.8064 76.6989 66.5084 74.5876 94.2282H62.7835C42.4955 94.2282 26.0488 110.675 26.0488 130.963C26.0488 151.251 42.4955 167.698 62.7835 167.698H204.873Z" stroke="white" stroke-width="9.79592"/>
<path d="M106.131 187.485L79.4863 233.33" stroke="white" stroke-width="9.79592" stroke-linecap="round"/>
<path d="M142.277 187.583L101.869 257.085" stroke="white" stroke-width="9.79592" stroke-linecap="round"/>
<path d="M180.188 187.485V246.163" stroke="white" stroke-width="9.79592" stroke-linecap="round"/>
<path d="M154.816 202.18L205.608 231.469" stroke="white" stroke-width="9.79592" stroke-linecap="round"/>
<path d="M154.816 231.469L205.608 202.18" stroke="white" stroke-width="9.79592" stroke-linecap="round"/>
</svg>
