<svg width="288" height="288" viewBox="0 0 288 288" fill="none" xmlns="http://www.w3.org/2000/svg">
<path d="M143.898 21V68.9661" stroke="#FFCB14" stroke-width="9.59322" stroke-linecap="round"/>
<path d="M6 165L48 165" stroke="#FFCB14" stroke-width="9.59322" stroke-linecap="round"/>
<path d="M211.723 97.0741L245.635 63.1621" stroke="#FFCB14" stroke-width="9.59322" stroke-linecap="round"/>
<path d="M76.0741 97.0741L42.1621 63.1621" stroke="#FFCB14" stroke-width="9.59322" stroke-linecap="round"/>
<path d="M42.1621 266.635L76.0741 232.723" stroke="#FFCB14" stroke-width="9.59322" stroke-linecap="round"/>
<path d="M220.356 159.143C217.69 123.412 190.655 94.281 155.223 88.959C119.79 83.637 85.3904 103.54 72.3451 136.911C59.2998 170.282 71.0811 208.238 100.729 228.358" stroke="#FFCB14" stroke-width="9.59322"/>
<path fill-rule="evenodd" clip-rule="evenodd" d="M239.83 169.695H232.3C218.649 153.403 196.556 146.892 176.252 153.178C155.948 159.464 141.398 177.319 139.341 198.474H129.508C113.614 198.474 100.729 211.359 100.729 227.254C100.729 243.149 113.614 256.034 129.508 256.034H239.83C263.672 256.034 283 236.706 283 212.864C283 189.022 263.672 169.695 239.83 169.695Z" stroke="white" stroke-width="9.59322"/>
</svg>
