<svg width="288" height="288" viewBox="0 0 288 288" fill="none" xmlns="http://www.w3.org/2000/svg">
<path d="M144.499 245.863C155.471 245.863 164.366 236.968 164.366 225.996C164.366 215.023 155.471 206.128 144.499 206.128C133.526 206.128 124.631 215.023 124.631 225.996C124.631 236.968 133.526 245.863 144.499 245.863Z" stroke="white" stroke-width="9.90909"/>
<path fill-rule="evenodd" clip-rule="evenodd" d="M169.272 182.99V37.7727C169.272 24.0911 158.181 13 144.499 13C130.818 13 119.726 24.0911 119.726 37.7727V182.99C100.306 194.203 90.838 217.061 96.6419 238.721C102.446 260.382 122.075 275.444 144.499 275.444C166.924 275.444 186.552 260.382 192.356 238.721C198.16 217.061 188.692 194.203 169.272 182.99Z" stroke="white" stroke-width="9.90909"/>
<path d="M193.945 47.6318H169.271" stroke="white" stroke-width="9.90909" stroke-linecap="round"/>
<path d="M193.945 82.3145H169.271" stroke="white" stroke-width="9.90909" stroke-linecap="round"/>
<path d="M193.945 116.996H169.271" stroke="white" stroke-width="9.90909" stroke-linecap="round"/>
<path d="M144.5 206.128V42.6279" stroke="white" stroke-width="9.90909" stroke-linecap="round"/>
</svg>
