<svg width="288" height="288" viewBox="0 0 288 288" fill="none" xmlns="http://www.w3.org/2000/svg">
<path d="M211.051 126.383C211.051 106.515 227.157 90.4082 247.025 90.4082C266.894 90.4082 283 106.515 283 126.383C283 146.251 266.894 162.357 247.025 162.357H71.9492" stroke="white" stroke-width="9.59322" stroke-linecap="round"/>
<path d="M103.416 90.0005C103.416 75.4357 111.898 62.306 124.904 56.7368C137.911 51.1675 152.879 54.2563 162.825 64.562C172.772 74.8678 175.737 90.3596 170.337 103.81C164.938 117.261 152.237 126.019 138.161 126H6" stroke="white" stroke-width="9.59322" stroke-linecap="round"/>
<path d="M216 234C216.012 224.457 212.335 215.3 205.779 208.547C199.222 201.794 190.325 198 181.047 198H6" stroke="white" stroke-width="9.59322" stroke-linecap="round"/>
</svg>
