<svg width="288" height="288" viewBox="0 0 288 288" fill="none" xmlns="http://www.w3.org/2000/svg">
<path d="M137.342 141.12C121.311 106.17 125.278 65.3035 147.732 34.0889C93.6694 42.2624 53.6472 88.6436 53.4766 143.32C53.4963 148.219 53.8246 153.111 54.4594 157.968" stroke="white" stroke-width="9.36" stroke-linejoin="bevel"/>
<path d="M68.7344 199.48C88.5852 233.03 124.519 253.773 163.499 254.184C202.479 254.596 238.843 234.616 259.398 201.492C221.337 210.065 181.603 197.559 155.314 168.732" stroke="white" stroke-width="9.36" stroke-linejoin="bevel"/>
<path fill-rule="evenodd" clip-rule="evenodd" d="M124.894 138.64H120.822C110.974 126.448 94.5733 121.68 79.7235 126.693C64.8737 131.706 54.7177 145.437 54.2728 161.104H48.2824C38.0405 161.61 29.9961 170.061 29.9961 180.315C29.9961 190.57 38.0405 199.021 48.2824 199.527H124.894C136.165 200.152 146.857 194.495 152.681 184.825C158.505 175.155 158.505 163.058 152.681 153.388C146.857 143.719 136.165 138.061 124.894 138.687V138.64Z" stroke="white" stroke-width="9.36"/>
</svg>
