<svg width="288" height="288" viewBox="0 0 288 288" fill="none" xmlns="http://www.w3.org/2000/svg">
<path d="M136.324 121.88C129.928 93.7844 135.899 64.2953 152.722 40.9014C124.834 45.0556 99.835 60.3715 83.4682 83.3299C67.1013 106.288 60.774 134.915 65.94 162.633" stroke="white" stroke-width="8.79245" stroke-linejoin="bevel"/>
<path d="M93.9434 216.003C116.436 238.941 148.214 250.285 180.148 246.777C212.082 243.269 240.638 225.297 257.615 198.023C236.896 202.645 215.253 200.725 195.672 192.527" stroke="white" stroke-width="8.79245" stroke-linejoin="bevel"/>
<path fill-rule="evenodd" clip-rule="evenodd" d="M159.096 135.597H153.688C140.709 119.434 119.023 113.091 99.3797 119.71C79.7367 126.33 66.3131 144.506 65.7639 165.227H57.8946C48.5723 164.839 39.7871 169.591 35.0103 177.606C30.2335 185.621 30.2335 195.609 35.0103 203.624C39.7871 211.639 48.5723 216.392 57.8946 216.004H159.008C173.688 216.489 187.466 208.934 194.95 196.295C202.434 183.657 202.434 167.943 194.95 155.305C187.466 142.666 173.688 135.111 159.008 135.597H159.096Z" stroke="white" stroke-width="8.79245"/>
</svg>
