<svg width="286" height="288" viewBox="0 0 286 288" fill="none" xmlns="http://www.w3.org/2000/svg">
<path fill-rule="evenodd" clip-rule="evenodd" d="M189.565 73.2679H194.516C194.749 61.9163 202.081 51.9321 212.843 48.3127C223.604 44.6933 235.48 48.2176 242.525 57.1215H251.621C263.511 57.1215 273.149 66.7601 273.149 78.6501C273.149 90.54 263.511 100.179 251.621 100.179H189.565C182.134 100.179 176.109 94.1545 176.109 86.7233C176.109 79.2921 182.134 73.2679 189.565 73.2679Z" stroke="white" stroke-width="10.7643"/>
<path d="M123.848 261.643C181.524 284.462 247.263 262.7 279.931 209.974C229.857 221.457 177.895 200.819 149.346 158.109C120.798 115.399 121.595 59.4942 151.351 17.6162C113.858 23.185 80.8075 45.2011 61.223 77.6546C41.6385 110.108 37.5644 149.61 50.113 185.378" stroke="white" stroke-width="10.7643" stroke-linejoin="bevel"/>
<path fill-rule="evenodd" clip-rule="evenodd" d="M39.1336 191.675H43.8698C55.1961 177.654 74.0571 172.171 91.1348 177.936C108.213 183.7 119.892 199.492 120.404 217.509H127.293C139.072 218.091 148.323 227.81 148.323 239.603C148.323 251.396 139.072 261.115 127.293 261.697H39.1336C20.5655 260.666 6.03711 245.309 6.03711 226.713C6.03711 208.116 20.5655 192.759 39.1336 191.729V191.675Z" stroke="white" stroke-width="10.7643"/>
</svg>
