<svg width="288" height="288" viewBox="0 0 288 288" fill="none" xmlns="http://www.w3.org/2000/svg">
<path d="M235.938 174.607C250.929 170.024 263.745 160.152 272.001 146.826C246.825 152.498 220.757 142.075 206.432 120.609C192.107 99.1433 192.487 71.0711 207.386 50C178.804 54.311 156.608 77.1574 153.123 105.852" stroke="white" stroke-width="9.62963" stroke-linejoin="bevel"/>
<path fill-rule="evenodd" clip-rule="evenodd" d="M71.9925 237.441C41.4122 237.374 16.676 212.53 16.7423 181.95C16.8089 151.37 41.653 126.634 72.2332 126.7H81.5258C99.2242 105.906 127.719 97.8435 153.689 106.282C179.659 114.721 197.972 137.993 200.067 165.219H211.718C231.662 165.219 247.829 181.386 247.829 201.33C247.829 221.273 231.662 237.441 211.718 237.441H71.9925Z" stroke="white" stroke-width="9.62963"/>
</svg>
