<svg width="288" height="288" viewBox="0 0 288 288" fill="none" xmlns="http://www.w3.org/2000/svg">
<path d="M31.0898 259.471L52.6267 222.564" stroke="white" stroke-width="9.78947" stroke-linecap="round"/>
<path d="M103.973 259.471L123.943 225.306" stroke="white" stroke-width="9.78947" stroke-linecap="round"/>
<path d="M56.8359 278.12L89.288 222.564" stroke="white" stroke-width="9.78947" stroke-linecap="round"/>
<path d="M95.5039 202.789C120.206 229.541 155.987 243.216 192.234 239.758C228.482 236.3 261.032 216.107 280.231 185.168C247.294 192.487 212.809 184.794 186.105 164.17" stroke="white" stroke-width="9.78947" stroke-linejoin="bevel"/>
<path d="M151.158 118.992C136.042 83.0709 140.696 41.874 163.444 10.2305C111.794 17.9642 71.7026 59.298 65.5488 111.16" stroke="white" stroke-width="9.78947" stroke-linejoin="bevel"/>
<path fill-rule="evenodd" clip-rule="evenodd" d="M144.06 202.79C166.817 202.015 184.864 183.342 184.864 160.573C184.864 137.803 166.817 119.131 144.06 118.356H136.816C123.354 102.399 101.571 96.1812 81.7146 102.628C61.8582 109.075 47.882 126.903 46.3612 147.724H37.5017C27.3882 147.297 17.855 152.45 12.6711 161.144C7.48723 169.839 7.48723 180.675 12.6711 189.369C17.855 198.064 27.3882 203.216 37.5017 202.79H144.06Z" stroke="white" stroke-width="9.78947"/>
</svg>
