<svg width="288" height="288" viewBox="0 0 288 288" fill="none" xmlns="http://www.w3.org/2000/svg">
<path d="M143 9L143 49" stroke="#FFCB14" stroke-width="9.53263" stroke-linecap="round"/>
<path d="M143 239L143 281" stroke="#FFCB14" stroke-width="9.53263" stroke-linecap="round"/>
<path d="M5 144L48 144" stroke="#FFCB14" stroke-width="9.53263" stroke-linecap="round"/>
<path d="M210.386 76.5934L244.084 42.8955" stroke="#FFCB14" stroke-width="9.53263" stroke-linecap="round"/>
<path d="M244.084 245.083L210.386 211.385" stroke="#FFCB14" stroke-width="9.53263" stroke-linecap="round"/>
<path d="M75.5943 76.5934L41.8965 42.8955" stroke="#FFCB14" stroke-width="9.53263" stroke-linecap="round"/>
<path d="M211.625 110.959C196.627 79.856 162.602 62.7114 128.68 69.1648C94.7584 75.6181 69.4057 104.059 66.8764 138.496C64.3471 172.933 85.2725 204.773 117.887 216.113C150.502 227.453 186.667 215.464 206.048 186.886" stroke="#FFCB14" stroke-width="9.53263"/>
<path fill-rule="evenodd" clip-rule="evenodd" d="M250.184 124.924H246.038C236.007 112.507 219.304 107.652 204.181 112.757C189.057 117.862 178.714 131.847 178.261 147.802H172.16C161.729 148.317 153.536 156.924 153.536 167.368C153.536 177.811 161.729 186.419 172.16 186.934H250.184C261.663 187.571 272.553 181.809 278.484 171.961C284.415 162.113 284.415 149.792 278.484 139.944C272.553 130.096 261.663 124.335 250.184 124.972V124.924Z" stroke="white" stroke-width="9.53263"/>
<path fill-rule="evenodd" clip-rule="evenodd" d="M78.6445 234.549H74.2118C74.2118 221.388 63.5421 210.718 50.3802 210.718C42.9822 210.763 36.0392 214.296 31.6486 220.25H23.8319C13.3024 220.25 4.7666 228.786 4.7666 239.316C4.7666 249.845 13.3024 258.381 23.8319 258.381H78.6445C85.2254 258.381 90.5603 253.046 90.5603 246.465C90.5603 239.884 85.2254 234.549 78.6445 234.549Z" stroke="white" stroke-width="9.53263"/>
</svg>
