<svg width="288" height="288" viewBox="0 0 288 288" fill="none" xmlns="http://www.w3.org/2000/svg">
<path d="M235.797 131.087C250.846 126.486 263.711 116.575 271.999 103.198C246.727 108.892 220.558 98.4293 206.178 76.8808C191.798 55.3324 192.179 27.1521 207.136 6C178.444 10.3276 156.162 33.2619 152.664 62.0667" stroke="white" stroke-width="9.66667" stroke-linejoin="bevel"/>
<path fill-rule="evenodd" clip-rule="evenodd" d="M71.2225 194.161C40.5247 194.095 15.6933 169.155 15.7599 138.457C15.8268 107.759 40.7664 82.9279 71.4642 82.9946H80.7925C98.559 62.1204 127.164 54.0268 153.233 62.4978C179.303 70.9688 197.686 94.3308 199.789 121.661H211.486C231.506 121.661 247.736 137.891 247.736 157.911C247.736 177.932 231.506 194.161 211.486 194.161H71.2225Z" stroke="white" stroke-width="9.66667"/>
<path d="M82.6289 259.025L109.116 213.64" stroke="white" stroke-width="9.66667" stroke-linecap="round"/>
<path d="M152.857 259.025L179.344 213.64" stroke="white" stroke-width="9.66667" stroke-linecap="round"/>
<path d="M104.379 281.935L144.254 213.64" stroke="white" stroke-width="9.66667" stroke-linecap="round"/>
</svg>
