<svg width="288" height="288" viewBox="0 0 288 288" fill="none" xmlns="http://www.w3.org/2000/svg">
<path d="M60.7372 277.126L92.1267 223.337H59.6074L88.3934 174.018" stroke="#FFCB14" stroke-width="9.82456" stroke-linecap="round"/>
<path d="M94.8281 203.491C119.619 230.338 155.528 244.062 191.905 240.592C228.283 237.122 260.95 216.857 280.218 185.807C247.163 193.152 212.553 185.431 185.754 164.733" stroke="white" stroke-width="9.82456" stroke-linejoin="bevel"/>
<path d="M150.681 119.393C135.511 83.3437 140.182 41.9991 163.011 10.2422C111.176 18.0036 70.9414 59.4856 64.7656 111.533" stroke="white" stroke-width="9.82456" stroke-linejoin="bevel"/>
<path d="M87.5096 203.492H143.51C166.348 202.714 184.46 183.975 184.46 161.123C184.46 138.272 166.348 119.533 143.51 118.755H136.288C122.778 102.741 100.917 96.5011 80.9897 102.971C61.0621 109.441 47.0358 127.333 45.5096 148.229H36.6183C26.4686 147.801 16.9012 152.971 11.6987 161.697C6.49626 170.422 6.49626 181.298 11.6987 190.023C16.9012 198.749 26.4686 203.92 36.6183 203.492H53.1236" stroke="white" stroke-width="9.82456" stroke-linecap="round"/>
</svg>
