<svg width="288" height="288" viewBox="0 0 288 288" fill="none" xmlns="http://www.w3.org/2000/svg">
<path d="M235.757 131.537C250.86 126.92 263.771 116.974 272.089 103.548C246.726 109.263 220.463 98.7622 206.031 77.1361C191.599 55.5101 191.981 27.2283 206.992 6C178.197 10.3432 155.835 33.3601 152.324 62.2686" stroke="white" stroke-width="9.70149" stroke-linejoin="bevel"/>
<path d="M109.638 194.84H70.8325C40.0241 194.773 15.1032 169.743 15.1701 138.935C15.2372 108.127 40.2666 83.2058 71.075 83.2728H80.437C98.2674 62.3234 126.975 54.2006 153.139 62.7022C179.302 71.2037 197.752 94.6498 199.862 122.079H211.601C231.694 122.079 247.982 138.367 247.982 158.459C247.982 178.552 231.694 194.84 211.601 194.84H149.948" stroke="white" stroke-width="9.70149" stroke-linecap="round"/>
<path d="M119.37 281L157 219H115L152.581 157" stroke="#FFCB14" stroke-width="9.70149" stroke-linecap="round"/>
</svg>
