<svg width="288" height="288" viewBox="0 0 288 288" fill="none" xmlns="http://www.w3.org/2000/svg">
<path d="M234.482 128.775C249.373 124.222 262.103 114.415 270.304 101.179C245.297 106.813 219.403 96.4597 205.173 75.1373C190.944 53.8149 191.321 25.9302 206.121 5C177.73 9.28223 155.682 31.9759 152.221 60.4786" stroke="white" stroke-width="9.56527" stroke-linejoin="bevel"/>
<path fill-rule="evenodd" clip-rule="evenodd" d="M71.6329 191.188C41.2571 191.122 16.6862 166.444 16.7521 136.068C16.8183 105.692 41.4963 81.1212 71.8721 81.1872H81.1026C98.6826 60.532 126.987 52.5233 152.783 60.9054C178.579 69.2876 196.77 92.4045 198.851 119.448H210.425C230.235 119.448 246.295 135.508 246.295 155.318C246.295 175.128 230.235 191.188 210.425 191.188H71.6329Z" stroke="white" stroke-width="9.56527"/>
<path d="M134.047 205.653V282.175" stroke="white" stroke-width="9.56527" stroke-linecap="round"/>
<path d="M100.902 224.783L167.142 263.044" stroke="white" stroke-width="9.56527" stroke-linecap="round"/>
<path d="M100.902 263.044L167.142 224.783" stroke="white" stroke-width="9.56527" stroke-linecap="round"/>
</svg>
