<svg width="288" height="288" viewBox="0 0 288 288" fill="none" xmlns="http://www.w3.org/2000/svg">
<path d="M100 49V83.2222" stroke="#FFCB14" stroke-width="9.77778" stroke-linecap="round"/>
<path d="M46.2222 136.658H12" stroke="#FFCB14" stroke-width="9.77778" stroke-linecap="round"/>
<path d="M61.9158 98.573L37.7158 74.373" stroke="#FFCB14" stroke-width="9.77778" stroke-linecap="round"/>
<path d="M128.209 109.427C118.207 99.1224 103.363 95.1274 89.5411 99.0202C75.7187 102.913 65.1412 114.067 61.9873 128.077C58.8334 142.086 63.6104 156.698 74.4311 166.138" stroke="#FFCB14" stroke-width="9.77778"/>
<path fill-rule="evenodd" clip-rule="evenodd" d="M276 183.102C276 168.191 270.076 153.89 259.533 143.347C248.989 132.803 234.688 126.88 219.777 126.88H210.244C192.28 105.73 163.325 97.5199 136.934 106.092C110.542 114.664 91.9381 138.322 89.8307 165.991H78.0485C57.7981 165.991 41.3818 182.407 41.3818 202.657C41.3818 222.908 57.7981 239.324 78.0485 239.324H219.826C250.858 239.297 276 214.133 276 183.102Z" stroke="white" stroke-width="9.77778"/>
</svg>
