<svg width="288" height="288" viewBox="0 0 288 288" fill="none" xmlns="http://www.w3.org/2000/svg">
<path fill-rule="evenodd" clip-rule="evenodd" d="M162.629 186.95H169.404C170.526 171.022 181.209 157.371 196.401 152.453C211.592 147.535 228.248 152.336 238.492 164.585H243.872H246.113C253.769 146.907 252.026 126.564 241.474 110.446C230.923 94.3283 212.976 84.5934 193.712 84.5382H184.098C165.795 62.9899 136.294 54.6245 109.404 63.3584C82.5152 72.0922 63.5599 96.1968 61.4128 124.387H49.4083C28.7758 124.387 12.0498 141.113 12.0498 161.746C12.0498 182.378 28.7758 199.104 49.4083 199.104H143.602C147.045 191.701 154.465 186.962 162.629 186.95Z" stroke="white" stroke-width="9.96226"/>
<path fill-rule="evenodd" clip-rule="evenodd" d="M276 196.763C275.972 179.022 261.612 164.64 243.871 164.585H238.492C228.242 152.331 211.575 147.534 196.379 152.465C181.183 157.395 170.507 171.063 169.403 187H162.629C151.404 187.546 142.583 196.806 142.583 208.045C142.583 219.284 151.404 228.544 162.629 229.09H244.021C261.738 228.899 276 214.482 276 196.763Z" stroke="white" stroke-width="9.96226"/>
</svg>
